<svg xmlns="http://www.w3.org/2000/svg" width="99.61" height="99.609" viewBox="0 0 99.61 99.609">
  <g id="Regular-M" transform="translate(-8.74 85.059)">
    <path id="Path_85" data-name="Path 85" d="M58.545,14.551a47.774,47.774,0,0,0,19.214-3.906A50.91,50.91,0,0,0,93.652-.146,50.908,50.908,0,0,0,104.443-16.04a47.767,47.767,0,0,0,3.907-19.214,47.767,47.767,0,0,0-3.907-19.214A50.907,50.907,0,0,0,93.652-70.361,50.829,50.829,0,0,0,77.734-81.152,47.947,47.947,0,0,0,58.5-85.059a47.774,47.774,0,0,0-19.214,3.906A50.616,50.616,0,0,0,23.413-70.361,51.115,51.115,0,0,0,12.646-54.468,47.774,47.774,0,0,0,8.74-35.254,47.774,47.774,0,0,0,12.646-16.04,50.91,50.91,0,0,0,23.438-.146,50.911,50.911,0,0,0,39.331,10.644,47.773,47.773,0,0,0,58.545,14.551Zm0-8.3A40.591,40.591,0,0,1,42.383,3.027,41.753,41.753,0,0,1,29.175-5.884a41.415,41.415,0,0,1-8.887-13.208,40.859,40.859,0,0,1-3.2-16.162,40.859,40.859,0,0,1,3.2-16.162A41.9,41.9,0,0,1,29.15-64.648,40.939,40.939,0,0,1,42.334-73.56a40.86,40.86,0,0,1,16.162-3.2,40.86,40.86,0,0,1,16.162,3.2,41.5,41.5,0,0,1,13.232,8.911,41.841,41.841,0,0,1,8.936,13.232,40.59,40.59,0,0,1,3.223,16.162,40.857,40.857,0,0,1-3.2,16.162A41.418,41.418,0,0,1,87.964-5.884,41.677,41.677,0,0,1,74.731,3.027,40.766,40.766,0,0,1,58.545,6.25Z"/>
  </g>
</svg>
