<svg xmlns="http://www.w3.org/2000/svg" viewBox="0 0 89.89 89.89"><g id="Layer_2" data-name="Layer 2"><g id="Layer_1-2" data-name="Layer 1"><g id="Symbols"><g id="Regular-M"><path d="M15.33,89.89H74.56c10.25,0,15.33-5.08,15.33-15.13V15.14C89.89,5.08,84.81,0,74.56,0H15.33C5.13,0,0,5,0,15.14V74.76C0,84.86,5.13,89.89,15.33,89.89Zm.1-7.86c-4.88,0-7.57-2.59-7.57-7.66V15.53c0-5.08,2.69-7.67,7.57-7.67h59c4.84,0,7.57,2.59,7.57,7.67V74.37C82,79.44,79.3,82,74.46,82Zm12.89-16.5a3.8,3.8,0,0,0,2.83-1.22L45,50.44,58.89,64.31a3.87,3.87,0,0,0,6.69-2.74,3.7,3.7,0,0,0-1.18-2.78L50.54,44.92,64.45,31a3.6,3.6,0,0,0,1.18-2.74,3.88,3.88,0,0,0-3.91-3.9A3.62,3.62,0,0,0,59,25.54L45,39.45,31.05,25.59a3.52,3.52,0,0,0-2.73-1.18,3.88,3.88,0,0,0-3.91,3.86A3.8,3.8,0,0,0,25.59,31L39.45,44.92,25.59,58.84a3.77,3.77,0,0,0-1.18,2.73A3.93,3.93,0,0,0,28.32,65.53Z"/></g></g></g></g></svg>