<svg xmlns="http://www.w3.org/2000/svg" viewBox="0 0 86.67 105.42"><g id="Layer_2" data-name="Layer 2"><g id="Layer_1-2" data-name="Layer 1"><g id="Symbols"><g id="Regular-M"><path d="M43.36,73.29A3.72,3.72,0,0,0,46.19,72l16.51-16a3.42,3.42,0,0,0-2.45-5.95,3.56,3.56,0,0,0-2.63,1.17l-7.38,7.86L46.92,62.6l.3-7.33V3.81A3.89,3.89,0,0,0,43.36,0a3.94,3.94,0,0,0-3.91,3.81V55.27l.34,7.33-3.32-3.47-7.42-7.86a3.59,3.59,0,0,0-2.68-1.17,3.36,3.36,0,0,0-3.52,3.42A3.45,3.45,0,0,0,24,56.05L40.53,72A3.71,3.71,0,0,0,43.36,73.29Zm-28,32.13h56c10.2,0,15.33-5.08,15.33-15.14V41.55c0-10.06-5.13-15.13-15.33-15.13H57.71v7.86H71.19c4.84,0,7.62,2.63,7.62,7.71V89.84c0,5.08-2.78,7.72-7.62,7.72H15.43c-4.88,0-7.57-2.64-7.57-7.72V42c0-5.08,2.69-7.71,7.57-7.71H29V26.42H15.33C5.13,26.42,0,31.49,0,41.55V90.28C0,100.34,5.13,105.42,15.33,105.42Z"/></g></g></g></g></svg>