<?xml version="1.0" encoding="UTF-8"?>
<svg width="100px" height="100px" viewBox="0 0 100 100" version="1.1" xmlns="http://www.w3.org/2000/svg" xmlns:xlink="http://www.w3.org/1999/xlink">
    <title>AppIcon/Glyph</title>
    <g id="AppIcon/Glyph" stroke="none" stroke-width="1" fill="none" fill-rule="evenodd">
        <path d="M88.2337256,3.07202609 C91.9818737,5.07655766 94.9234423,8.01812626 96.9279739,11.7662744 C98.9325055,15.5144226 100,19.2322143 100,29.4846798 L100,70.5153202 C100,80.7677857 98.9325055,84.4855774 96.9279739,88.2337256 C94.9234423,91.9818737 91.9818737,94.9234423 88.2337256,96.9279739 C84.4855774,98.9325055 80.7677857,100 70.5153202,100 L29.4846798,100 C19.2322143,100 15.5144226,98.9325055 11.7662744,96.9279739 C8.01812626,94.9234423 5.07655766,91.9818737 3.07202609,88.2337256 C1.10205542,84.5502007 0.0370887046,80.8959944 0.000951318168,71.0398262 L7.94144236e-16,29.4846798 C-4.61420671e-16,19.2322143 1.06749453,15.5144226 3.07202609,11.7662744 C5.07655766,8.01812626 8.01812626,5.07655766 11.7662744,3.07202609 C15.4497993,1.10205542 19.1040056,0.0370887046 28.9601738,0.000951318168 L70.5153202,1.19121635e-15 C80.7677857,-6.92131006e-16 84.4855774,1.06749453 88.2337256,3.07202609 Z" id="Combined-Shape" fill="#2980B9"></path>
        <path d="M76.9193769,49.8516544 C76.3996142,52.4289704 75.8984357,55.0098868 75.3861857,57.588803 C74.9549942,59.759069 74.5172785,61.928135 74.0841099,64.097801 L73.2683703,68.2096236 C73.131618,68.8947446 72.9936429,69.5796064 72.8532074,70.2639569 C72.3466909,72.7322595 70.3783541,74.3600591 67.8467598,74.3808617 C65.2934181,74.4018642 62.7396809,74.3856622 60.1861415,74.3866624 C59.5370807,74.3868624 59.5358945,74.3880625 59.5356968,75.0429428 C59.5349059,77.1598024 59.526207,79.2766619 59.5426164,81.3933214 C59.5459773,81.8375758 59.4263667,82.0003958 58.9568207,81.9993957 C52.6637181,81.9845939 46.3704178,81.9839938 40.0773153,82 C39.5816724,82.0009959 39.4719469,81.8253743 39.4762964,81.3633177 C39.495869,79.2300562 39.470563,77.0961946 39.495869,74.963133 C39.5016024,74.4856745 39.3428465,74.375261 38.9027583,74.3782613 C36.3328095,74.3948634 33.762663,74.3988639 31.1929119,74.3818618 C28.8439957,74.3664599 26.9632416,73.0160943 26.2797803,70.7768198 C25.9606867,69.7314917 25.8106297,68.6325569 25.5953305,67.5556249 C25.0834759,64.9935108 24.5761686,62.4307966 24.0714313,59.8672823 L22.7871489,53.3032776 L22.7871489,53.3032776 C22.5552426,52.1281335 22.316219,50.9543896 22.0704734,49.7820459 C21.9202187,49.0665582 21.962725,49.00035 22.6744579,49.00035 L76.2493595,49 C77.0629097,49 77.0816916,49.0463557 76.9193769,49.8516544 Z M78.9359264,39.0050903 C79.3741247,39.0052881 79.8353653,39.0078591 80.2457945,39.1373992 C81.4471471,39.5167241 82.1535817,40.6723006 81.9716063,41.8468631 C81.7762389,43.1066649 80.7779346,43.9849664 79.4735809,43.9877351 C74.6983032,43.9978215 69.9230254,43.993075 65.1477477,43.9932727 L49.492746,43.9932727 L49.492746,43.9932727 C39.5811939,43.9932727 29.6696419,43.9885262 19.7580899,44 C18.7007027,44.0011836 17.8660581,43.6556775 17.3286006,42.7202202 C16.4078919,41.1180766 17.5283008,39.0855832 19.3683396,39.0086502 L19.7374355,39.0006158 L19.7374355,39.0006158 L20.106679,39.000146 C39.7164938,38.9999483 59.3263086,38.9991572 78.9359264,39.0050903 Z M71.9317138,23.0747605 C71.8958629,23.3024159 72.0319781,23.6332562 72.1964587,23.807596 C73.4421782,25.1271055 74.6995197,26.4358708 75.9852267,27.7138225 C76.6945619,28.4186826 77.0215534,29.2324037 76.9989004,30.2435749 C76.968762,31.6109265 76.9776262,32.9794944 76.9989004,34.3472514 C77.0063857,34.8185771 76.8759831,35.0261632 76.3856928,34.9973769 C75.7642119,34.9608871 75.1389884,34.9884571 74.5153407,34.9884571 C73.8753435,34.9884571 73.2339674,34.9625089 72.5959399,34.9967687 C72.1089984,35.0229197 71.9730802,34.821618 71.9854901,34.3468459 C72.0124768,33.3342557 72.0112949,32.319841 71.9805656,31.3076562 C71.9732772,31.0674321 71.861194,30.7755142 71.700259,30.6040124 C70.6759482,29.5121584 69.634303,28.4371302 68.5711866,27.3854148 C68.4157671,27.2317525 68.0992157,27.1350547 67.8870652,27.1760043 C65.3199848,27.6700348 62.8821252,26.0553639 62.1578193,23.3514743 C61.5103367,20.9346373 62.9171881,18.1875682 65.2423736,17.3278295 C68.9476208,15.958248 72.5618619,19.0736607 71.9317138,23.0747605 Z" id="Combined-Shape" fill="#FFFFFF"></path>
    </g>
</svg>