<svg xmlns="http://www.w3.org/2000/svg" viewBox="0 0 99.61 99.61"><g id="Layer_2" data-name="Layer 2"><g id="Layer_1-2" data-name="Layer 1"><g id="Regular-M"><path d="M49.8,99.61A47.7,47.7,0,0,0,69,95.7,51.15,51.15,0,0,0,95.7,69,47.7,47.7,0,0,0,99.61,49.8,47.69,47.69,0,0,0,95.7,30.59,51.07,51.07,0,0,0,69,3.91,47.82,47.82,0,0,0,49.76,0,47.7,47.7,0,0,0,30.54,3.91,51,51,0,0,0,3.91,30.59,47.69,47.69,0,0,0,0,49.8,47.7,47.7,0,0,0,3.91,69,51.15,51.15,0,0,0,30.59,95.7,47.69,47.69,0,0,0,49.8,99.61Zm0-8.3a40.76,40.76,0,0,1-16.16-3.22,41.8,41.8,0,0,1-13.21-8.92A41.37,41.37,0,0,1,11.55,66,40.93,40.93,0,0,1,8.35,49.8a40.92,40.92,0,0,1,3.2-16.16,41.84,41.84,0,0,1,8.86-13.23A40.86,40.86,0,0,1,49.76,8.3a40.92,40.92,0,0,1,16.16,3.2A41.83,41.83,0,0,1,88.09,33.64,40.76,40.76,0,0,1,91.31,49.8,41,41,0,0,1,79.22,79.17,41.56,41.56,0,0,1,66,88.09,40.9,40.9,0,0,1,49.8,91.31Zm0-17a20.61,20.61,0,0,0,8.93-1.83,18.59,18.59,0,0,0,6-4.2q2.13-2.37,2.13-4A1.23,1.23,0,0,0,66.09,63a1.69,1.69,0,0,0-1.49,0,50,50,0,0,1-6.08,2.8,24.25,24.25,0,0,1-8.76,1.35A24.3,24.3,0,0,1,41,65.84,53.9,53.9,0,0,1,34.86,63a1.63,1.63,0,0,0-1.46,0,1.23,1.23,0,0,0-.69,1.22q0,1.6,2.13,4a18.59,18.59,0,0,0,6,4.2A20.63,20.63,0,0,0,49.76,74.27ZM35.25,45.46a5.48,5.48,0,0,0,4.11-1.88,6.77,6.77,0,0,0,1.75-4.81,6.85,6.85,0,0,0-1.75-4.83A5.44,5.44,0,0,0,35.25,32a5.23,5.23,0,0,0-4,1.91,7,7,0,0,0-1.71,4.83,6.87,6.87,0,0,0,1.71,4.81A5.26,5.26,0,0,0,35.25,45.46Zm29,0a5.46,5.46,0,0,0,4.1-1.88,6.77,6.77,0,0,0,1.76-4.81,6.86,6.86,0,0,0-1.76-4.83A5.42,5.42,0,0,0,64.21,32a5.21,5.21,0,0,0-4,1.91,7,7,0,0,0-1.71,4.83,6.87,6.87,0,0,0,1.71,4.81A5.24,5.24,0,0,0,64.21,45.46Z"/></g></g></g></svg>