<svg xmlns="http://www.w3.org/2000/svg" width="99.61" height="99.61" viewBox="0 0 99.61 99.61">
  <g id="Regular-M" transform="translate(-8.74 85.059)">
    <path id="Subtraction_2" data-name="Subtraction 2" d="M2927.5-3779.39a48,48,0,0,1-19.214-3.906,51.155,51.155,0,0,1-15.893-10.791,51.133,51.133,0,0,1-10.79-15.894,47.974,47.974,0,0,1-3.907-19.214,47.983,47.983,0,0,1,3.907-19.214,51.362,51.362,0,0,1,10.766-15.893,50.867,50.867,0,0,1,15.869-10.791,48,48,0,0,1,19.214-3.906,48.169,48.169,0,0,1,19.238,3.906,51.072,51.072,0,0,1,15.918,10.791,51.149,51.149,0,0,1,10.791,15.893,48,48,0,0,1,3.907,19.214,47.99,47.99,0,0,1-3.907,19.214,51.118,51.118,0,0,1-10.791,15.894,51.132,51.132,0,0,1-15.893,10.791A48,48,0,0,1,2927.5-3779.39Zm-19.287-50.586a3.677,3.677,0,0,0-2.783,1.2,4.045,4.045,0,0,0-1.123,2.856,4.436,4.436,0,0,0,.317,1.635,6.888,6.888,0,0,0,.854,1.538l12.256,15.039a6.37,6.37,0,0,0,2,1.807,4.9,4.9,0,0,0,2.3.537,4.564,4.564,0,0,0,2.294-.586,5.465,5.465,0,0,0,1.807-1.758l22.949-36.181c.289-.482.569-1.008.831-1.562a3.9,3.9,0,0,0,.39-1.66,3.281,3.281,0,0,0-1.27-2.71,4.482,4.482,0,0,0-2.832-1,4.053,4.053,0,0,0-3.516,2.246l-20.85,33.5-9.912-12.792a5.685,5.685,0,0,0-1.782-1.661A4.173,4.173,0,0,0,2908.217-3829.976Z" transform="translate(-2868.96 3793.941)" fill="#007aff"/>
  </g>
</svg>
