<svg xmlns="http://www.w3.org/2000/svg" viewBox="0 0 151.22 109.81"><g id="Layer_2" data-name="Layer 2"><g id="Layer_1-2" data-name="Layer 1"><g id="Symbols"><g id="Regular-M"><path d="M44.48,109.81c9.18,0,17.48-2,24.32-8.25a15.85,15.85,0,0,0,10,3c4.1,0,7.32-1.37,13.13-1.37,5.28,0,8,1.37,12.21,1.37,10.06,0,13.57-5.17,13.57-10.89,0-9.23-7-14.74-21.09-16a133.76,133.76,0,0,1,12.84-5.52A40.17,40.17,0,0,0,130,78.37c13.18-.1,21.19-4.2,21.19-17.73,0-16.6-12.65-29.1-27.49-29.24L113.13,17C105,6.1,96.29,0,85.16,0,76.51,0,64.75,4.79,64.75,11.57c0,5.67,6.44,9.72,12.74,13.67,7.32,4.59,17.19,10.31,26.37,15.63a4.75,4.75,0,0,1-3.37,1.61c-1.52,0-3.52-.73-6.11-2.25C74.66,29.1,62.84,20.07,47.66,20.07c-18.17,0-31.25,9.32-37.45,27.2C4.15,48.54,0,52.49,0,58.59c0,7.57,6.15,11.48,12.45,11.82C17.09,78,30,84.67,46.68,83.3l4.69,3.86a8.08,8.08,0,0,1-3.81.83c-3.22,0-6.35-1.08-10.06-1.08-6.79,0-11.52,4-11.52,9.87C26,105.13,33.35,109.81,44.48,109.81ZM91.7,96.19c-6.15,0-10,1-12.7,1a10.63,10.63,0,0,1-7.17-2.35L50,76.42c-15.63.68-27-3.42-33.69-13-5,.58-8.6-1.32-8.6-5.42,0-3.71,3.28-6.3,8.65-6,5-16.5,16-24.17,31.2-24.17,15.92,0,32.32,12.84,44.29,19.58A18.38,18.38,0,0,0,101.07,50c5.33,0,9.57-3.37,13.38-10.21l-32.52-20c-3.46-2.1-8.35-5.86-8.35-7.18,0-2.88,6.74-5,11.67-5,7.72,0,14.16,4.69,20.12,11.81l15,17.92c13.77-.63,24.22,9.92,24.22,23.39,0,8.65-4.05,11.28-14.31,11.28-6.39,0-13.42-2.59-19.53-6.44A75.72,75.72,0,0,0,84.81,77.64c-1,.09-1.85.19-2.58.29l-3.57-8.59C71.29,51.61,59.52,45.56,47.51,45.56a30.42,30.42,0,0,0-6.2.48c-2.39.54-3.32,1.81-3.32,3.42a3,3,0,0,0,3.37,3c2.1-.1,3.42-.34,5.81-.34,11.08,0,18.94,6,26,22l4.69,10.89a56.3,56.3,0,0,1,12.79-1.37c9.92,0,19.83,2.64,19.83,9.38,0,2.58-2.3,4.34-6.35,4.34C99.36,97.41,96,96.19,91.7,96.19ZM127,57.62a4.4,4.4,0,1,0-4.39-4.4A4.46,4.46,0,0,0,127,57.62ZM33,96.83c0-2,1.27-3.47,4.1-3.47s5.86.78,9.23.78c4.49,0,7.62-.39,10.59-2.39L63.28,97c-4.49,4-11.08,6.15-19,6.15C37.4,103.17,33,100.73,33,96.83Z"/></g></g></g></g></svg>