<svg xmlns="http://www.w3.org/2000/svg" viewBox="0 0 99.61 99.61"><g id="Layer_2" data-name="Layer 2"><g id="Layer_1-2" data-name="Layer 1"><g id="Symbols"><g id="Regular-M"><path d="M49.8,99.61A50.18,50.18,0,0,0,99.61,49.8C99.61,22.56,77,0,49.76,0S0,22.56,0,49.8,22.61,99.61,49.8,99.61Zm0-8.3A41.51,41.51,0,1,1,91.31,49.8,41.31,41.31,0,0,1,49.8,91.31ZM25.2,37.06H74.51a3.45,3.45,0,1,0,0-6.88H25.2a3.45,3.45,0,1,0,0,6.88Zm0,16.16H74.51a3.41,3.41,0,0,0,3.71-3.42,3.45,3.45,0,0,0-3.71-3.46H25.2a3.43,3.43,0,0,0-3.72,3.46A3.39,3.39,0,0,0,25.2,53.22Zm0,16.21H74.51a3.45,3.45,0,1,0,0-6.88H25.2a3.45,3.45,0,1,0,0,6.88Z"/></g></g></g></g></svg>