<svg xmlns="http://www.w3.org/2000/svg" viewBox="0 0 99.61 99.61"><g id="Layer_2" data-name="Layer 2"><g id="Layer_1-2" data-name="Layer 1"><g id="Symbols"><g id="Regular-M"><path d="M49.8,99.61A50.18,50.18,0,0,0,99.61,49.8C99.61,22.56,77,0,49.76,0S0,22.56,0,49.8,22.61,99.61,49.8,99.61ZM26.27,49.85a4.11,4.11,0,0,1,4.35-4.29H45.51V30.62a4.09,4.09,0,0,1,4.2-4.35A4.14,4.14,0,0,1,54,30.62V45.56H69a4.08,4.08,0,0,1,4.25,4.29A4,4,0,0,1,69,54H54V69a4.12,4.12,0,0,1-4.29,4.3,4.08,4.08,0,0,1-4.2-4.3V54H30.62A4.06,4.06,0,0,1,26.27,49.85Z"/></g></g></g></g></svg>