<svg xmlns="http://www.w3.org/2000/svg" viewBox="0 0 105.52 89.89"><g id="Layer_2" data-name="Layer 2"><g id="Layer_1-2" data-name="Layer 1"><g id="Symbols"><g id="Regular-M"><path d="M11.23,40.92H94.29q5.61,0,8.42-2.76t2.81-8.42V11.08q0-5.61-2.81-8.35T94.29,0H11.23Q5.62,0,2.81,2.73T0,11.08V29.74q0,5.65,2.81,8.42T11.23,40.92Zm.59-7.38a4.48,4.48,0,0,1-3.3-1.14A4.64,4.64,0,0,1,7.37,29V11.91A4.59,4.59,0,0,1,8.52,8.47a4.6,4.6,0,0,1,3.3-1.1H93.65A4.68,4.68,0,0,1,97,8.47a4.59,4.59,0,0,1,1.14,3.44V29A4.64,4.64,0,0,1,97,32.4a4.56,4.56,0,0,1-3.35,1.14Zm-.59,56.35H94.29q5.61,0,8.42-2.76t2.81-8.37V60.06q0-5.56-2.81-8.33T94.29,49H11.23q-5.61,0-8.42,2.76T0,60.06v18.7q0,5.61,2.81,8.37T11.23,89.89Zm.59-7.37a4.52,4.52,0,0,1-3.3-1.12A4.62,4.62,0,0,1,7.37,78V60.89a4.62,4.62,0,0,1,1.15-3.42,4.52,4.52,0,0,1,3.3-1.12H93.65a4,4,0,0,1,4.49,4.54V78a4,4,0,0,1-4.49,4.54Z"/></g></g></g></g></svg>