<svg xmlns="http://www.w3.org/2000/svg" width="23" height="23" viewBox="0 0 23 23">
  <path id="Combined_Shape" data-name="Combined Shape" d="M3.369,19.632A11.5,11.5,0,1,1,19.632,3.369,11.5,11.5,0,1,1,3.369,19.632ZM4.075,4.075A10.5,10.5,0,1,0,22,11.5,10.5,10.5,0,0,0,4.075,4.075ZM6.329,18.04a7.891,7.891,0,0,1-2.8-4.72,1.238,1.238,0,0,1,.246-1,.894.894,0,0,1,.672-.311.921.921,0,0,1,.247.034,21.889,21.889,0,0,0,6.821,1.278,21.881,21.881,0,0,0,6.764-1.274.892.892,0,0,1,.915.261,1.187,1.187,0,0,1,.275.922A7.917,7.917,0,0,1,16.7,18.011a8.11,8.11,0,0,1-5.193,1.928A8.192,8.192,0,0,1,6.329,18.04ZM5.009,13.588c-.1.326.105.846.77,1.273a11.389,11.389,0,0,0,5.743,1.323,10.855,10.855,0,0,0,5.565-1.323,1.324,1.324,0,0,0,.814-1.3.413.413,0,0,0-.432-.318,1,1,0,0,0-.382.087,27.965,27.965,0,0,1-5.565.9A15.56,15.56,0,0,1,5.885,13.3a1.086,1.086,0,0,0-.349-.064A.508.508,0,0,0,5.009,13.588ZM13.5,7.5A1.5,1.5,0,1,1,15,9,1.5,1.5,0,0,1,13.5,7.5Zm-7,0A1.5,1.5,0,1,1,8,9,1.5,1.5,0,0,1,6.5,7.5Z"/>
</svg>
