<svg xmlns="http://www.w3.org/2000/svg" viewBox="0 0 98.39 84.08"><g id="Layer_2" data-name="Layer 2"><g id="Layer_1-2" data-name="Layer 1"><g id="Regular-M"><path d="M8.5,33h16c5.37,0,8.5-3.13,8.5-8.3V8.25C33,3.08,29.83,0,24.46,0H8.5C3.12,0,0,3.08,0,8.25V24.66C0,29.83,3.12,33,8.5,33ZM47.12,7.37H94.63a3.72,3.72,0,0,0,3.76-3.71A3.71,3.71,0,0,0,94.63,0H47.12a3.64,3.64,0,0,0-3.71,3.66A3.65,3.65,0,0,0,47.12,7.37Zm0,25.59H94.63a3.69,3.69,0,1,0,0-7.37H47.12a3.69,3.69,0,1,0,0,7.37ZM8.5,84.08h16c5.37,0,8.5-3.07,8.5-8.25V59.42c0-5.17-3.13-8.25-8.5-8.25H8.5c-5.38,0-8.5,3.08-8.5,8.25V75.83C0,81,3.12,84.08,8.5,84.08ZM47.12,58.54H94.63a3.75,3.75,0,0,0,3.76-3.71,3.71,3.71,0,0,0-3.76-3.66H47.12a3.64,3.64,0,0,0-3.71,3.66A3.68,3.68,0,0,0,47.12,58.54Zm0,25.54H94.63a3.71,3.71,0,0,0,3.76-3.66,3.75,3.75,0,0,0-3.76-3.71H47.12a3.68,3.68,0,0,0-3.71,3.71A3.64,3.64,0,0,0,47.12,84.08Z"/></g></g></g></svg>