<svg xmlns="http://www.w3.org/2000/svg" viewBox="0 0 89.89 89.89"><g id="Layer_2" data-name="Layer 2"><g id="Layer_1-2" data-name="Layer 1"><g id="Symbols"><g id="Regular-M"><path d="M9.33,40.92H31.59c6.2,0,9.33-3.13,9.33-9.57V9.52C40.92,3.08,37.79,0,31.59,0H9.33C3.12,0,0,3.08,0,9.52V31.35C0,37.79,3.12,40.92,9.33,40.92Zm49,0H80.57c6.2,0,9.32-3.13,9.32-9.57V9.52C89.89,3.08,86.77,0,80.57,0H58.35C52.1,0,49,3.08,49,9.52V31.35C49,37.79,52.1,40.92,58.35,40.92ZM9.42,34c-1.71,0-2.54-.88-2.54-2.68V9.52c0-1.76.83-2.64,2.54-2.64h22A2.32,2.32,0,0,1,34,9.52V31.35c0,1.8-.88,2.68-2.58,2.68Zm49,0c-1.76,0-2.59-.88-2.59-2.68V9.52c0-1.76.83-2.64,2.59-2.64h22c1.71,0,2.54.88,2.54,2.64V31.35c0,1.8-.83,2.68-2.54,2.68ZM9.33,89.89H31.59c6.2,0,9.33-3.07,9.33-9.52V58.5c0-6.4-3.13-9.53-9.33-9.53H9.33C3.12,49,0,52.1,0,58.5V80.37C0,86.82,3.12,89.89,9.33,89.89Zm49,0H80.57c6.2,0,9.32-3.07,9.32-9.52V58.5c0-6.4-3.12-9.53-9.32-9.53H58.35C52.1,49,49,52.1,49,58.5V80.37C49,86.82,52.1,89.89,58.35,89.89ZM9.42,83c-1.71,0-2.54-.88-2.54-2.64V58.54c0-1.8.83-2.68,2.54-2.68h22c1.7,0,2.58.88,2.58,2.68V80.37A2.32,2.32,0,0,1,31.45,83Zm49,0c-1.76,0-2.59-.88-2.59-2.64V58.54c0-1.8.83-2.68,2.59-2.68h22c1.71,0,2.54.88,2.54,2.68V80.37c0,1.76-.83,2.64-2.54,2.64Z"/></g></g></g></g></svg>