<svg xmlns="http://www.w3.org/2000/svg" viewBox="0 0 164.31 82.57"><g id="Layer_2" data-name="Layer 2"><g id="Layer_1-2" data-name="Layer 1"><g id="Symbols"><g id="Regular-M"><path d="M14.36,82.47c9.52,0,19.38-4.15,27.1-12.16,5.46,2.93,10.69,5.62,18.55,5.62A35.76,35.76,0,0,0,78.81,71c7.52,7.47,17.28,11.57,26.61,11.57,7.71,0,13.67-3.22,13.67-9.18,0-5.67-4.25-8-10-9.57-1.42-.39-2.88-.73-4.35-1.12,21.64-.44,21.1-11.43,36.48-11.43,13.18,0,23.05-4.59,23.05-13.67,0-19.44-11.19-29.79-24.08-29.79-13.33,0-20.41,8.4-23.24,19.44-1.61,6-4.44,9.76-8.74,11.91l-3.07-5.66C92.24,9.67,80.32.05,60.69,0c-21.19.05-32,9.28-47.8,39.16C8.11,48.29,0,50.29,0,56c0,4,3.08,6.69,9.28,6.69h5c-2.05.58-4.15,1.12-6.06,1.8-4.59,1.61-7.57,4-7.57,8.74C.68,79.2,6.59,82.47,14.36,82.47ZM60.69,7.76c13.19,0,21.59,5.91,28.42,14.65a44.05,44.05,0,0,1-29,10.6A43.49,43.49,0,0,1,31.54,22.75C39.89,11.67,48.14,7.76,60.69,7.76ZM118.8,52.69A28.17,28.17,0,0,1,112.45,45c5.27-2,8.84-5.57,11-13.92,2.34-10.06,7.66-15.91,16.79-15.91,9.28,0,17.05,8.59,17.05,21.24,0,4.68-7.13,7.71-14.56,7.71C130.52,44.14,125.05,48.68,118.8,52.69ZM142.09,33.3a4.4,4.4,0,1,0-4.44-4.39A4.43,4.43,0,0,0,142.09,33.3ZM98.88,37.7c3.37,6,7.66,12.84,12,17.13-2,.05-4.3,0-6.64,0A44.58,44.58,0,0,0,87.06,58a49.81,49.81,0,0,1-9-21.88,51,51,0,0,0,14.69-8.54C94.87,30.71,96.87,34.13,98.88,37.7ZM17.14,54.83c-2.49,0-5,.05-7.33.2l-.39-.68c3.32-2.79,7.47-6.3,10.45-12.16,2.84-5.52,5.47-10.21,8.06-14.26a50.15,50.15,0,0,0,15.14,8.54,54.5,54.5,0,0,1-9,21.49A43.59,43.59,0,0,0,17.14,54.83ZM60,68.16c-8.55,0-13.77-4-20.51-7.61A55.28,55.28,0,0,0,48.44,38a51.71,51.71,0,0,0,11.67,1.32,53.46,53.46,0,0,0,12.55-1.52A49.08,49.08,0,0,0,81.54,60.6C74.76,64.21,69.34,68.16,60,68.16ZM8,72.22c0-1.76,1.27-2.93,5-3.86a85.2,85.2,0,0,0,12.84-4.59,41.15,41.15,0,0,1,8.79,3c-7.47,6.3-14.16,9.13-20.17,9.13C10.16,75.93,8,74.56,8,72.22Zm98.83-3.71c3.71.92,5,2.1,5,3.85,0,2.3-2.2,3.67-6.5,3.67-6,0-12.5-2.74-19.82-8.79a35.3,35.3,0,0,1,8.3-3.37A92.84,92.84,0,0,0,106.79,68.51Z"/></g></g></g></g></svg>