<svg xmlns="http://www.w3.org/2000/svg" viewBox="0 0 99.61 99.61"><g id="Layer_2" data-name="Layer 2"><g id="Layer_1-2" data-name="Layer 1"><g id="Regular-M"><path d="M49.8,99.61A50.18,50.18,0,0,0,99.61,49.8C99.61,22.56,77,0,49.76,0S0,22.56,0,49.8,22.61,99.61,49.8,99.61Zm0-8.3A41.51,41.51,0,1,1,91.31,49.8,41.31,41.31,0,0,1,49.8,91.31ZM36,68.85h4.78c2.44,0,3.57-1.32,3.57-3.18V33.94c0-1.91-1.13-3.23-3.57-3.23H36c-2.4,0-3.52,1.32-3.52,3.23V65.67C32.47,67.53,33.59,68.85,36,68.85Zm22.85,0h4.78c2.35,0,3.47-1.32,3.47-3.18V33.94c0-1.91-1.12-3.23-3.47-3.23H58.84c-2.44,0-3.57,1.32-3.57,3.23V65.67C55.27,67.53,56.4,68.85,58.84,68.85Z"/></g></g></g></svg>