<svg xmlns="http://www.w3.org/2000/svg" viewBox="0 0 99.61 99.61"><g id="Layer_2" data-name="Layer 2"><g id="Layer_1-2" data-name="Layer 1"><g id="Symbols"><g id="Regular-M"><path d="M49.8,99.61A50.18,50.18,0,0,0,99.61,49.8C99.61,22.56,77,0,49.76,0S0,22.56,0,49.8,22.61,99.61,49.8,99.61Zm0-8.3A41.51,41.51,0,1,1,91.31,49.8,41.31,41.31,0,0,1,49.8,91.31ZM32,62.79c0,3,1.86,4.84,4.89,4.84H62.65c3.07,0,4.88-1.81,4.88-4.84v-26c0-3-1.81-4.79-4.88-4.79H36.87c-3,0-4.89,1.81-4.89,4.79Z"/></g></g></g></g></svg>