<svg xmlns="http://www.w3.org/2000/svg" viewBox="0 0 99.61 99.61"><g id="Layer_2" data-name="Layer 2"><g id="Layer_1-2" data-name="Layer 1"><g id="Symbols"><g id="Regular-M"><path d="M49.8,99.61A50.18,50.18,0,0,0,99.61,49.8C99.61,22.56,77,0,49.76,0S0,22.56,0,49.8,22.61,99.61,49.8,99.61Zm0-8.3A41.51,41.51,0,1,1,91.31,49.8,41.31,41.31,0,0,1,49.8,91.31ZM27,56.93a7.13,7.13,0,1,0-7.13-7.13A7.12,7.12,0,0,0,27,56.93Zm22.76,0a7.13,7.13,0,1,0-7.13-7.13A7.16,7.16,0,0,0,49.76,56.93Zm22.8,0a7.13,7.13,0,1,0-7.13-7.13A7.13,7.13,0,0,0,72.56,56.93Z"/></g></g></g></g></svg>