<svg xmlns="http://www.w3.org/2000/svg" viewBox="0 0 104.49 104.39"><g id="Layer_2" data-name="Layer 2"><g id="Layer_1-2" data-name="Layer 1"><g id="Symbols"><g id="Regular-M"><path d="M47.31,104.39h9.87a7.46,7.46,0,0,0,7.52-5.9l2.1-9.13,1.56-.54,8,4.88a7.4,7.4,0,0,0,9.52-1.17l6.84-6.79a7.41,7.41,0,0,0,1.17-9.52l-5-7.91.58-1.46,9.13-2.15a7.55,7.55,0,0,0,5.91-7.52V47.51A7.5,7.5,0,0,0,98.58,40l-9-2.2-.63-1.56,5-7.91a7.4,7.4,0,0,0-1.18-9.52L85.89,12a7.45,7.45,0,0,0-9.47-1.17l-8,4.88L66.8,15,64.7,5.91A7.47,7.47,0,0,0,57.18,0H47.31a7.47,7.47,0,0,0-7.52,5.91L37.65,15,36,15.67l-7.91-4.88A7.53,7.53,0,0,0,18.55,12L11.77,18.8c-2.69,2.73-3.23,6.4-1.17,9.52l4.93,7.91-.59,1.56-9,2.2A7.5,7.5,0,0,0,0,47.51v9.67A7.55,7.55,0,0,0,5.91,64.7L15,66.85l.54,1.46-4.94,7.91a7.34,7.34,0,0,0,1.18,9.52l6.78,6.79a7.47,7.47,0,0,0,9.57,1.17l7.91-4.88,1.57.54,2.14,9.13A7.46,7.46,0,0,0,47.31,104.39Zm.79-7.61a1.25,1.25,0,0,1-1.42-1.13L43.75,83.54a27.43,27.43,0,0,1-7.86-3.22L25.24,86.87a1.28,1.28,0,0,1-1.8-.25l-5.76-5.76a1.35,1.35,0,0,1-.2-1.81L24,68.51a35.69,35.69,0,0,1-3.17-7.82L8.74,57.81A1.23,1.23,0,0,1,7.62,56.4V48.24c0-.88.29-1.27,1.12-1.41L20.8,43.9A39.17,39.17,0,0,1,23.93,36l-6.5-10.55a1.42,1.42,0,0,1,.15-1.91l5.81-5.66a1.31,1.31,0,0,1,1.85-.24l10.55,6.39a39.74,39.74,0,0,1,8-3.22L46.68,8.74A1.25,1.25,0,0,1,48.1,7.62h8.3c.83,0,1.27.34,1.36,1.12l3,12.21a35.44,35.44,0,0,1,7.86,3.17l10.6-6.44a1.37,1.37,0,0,1,1.9.24l5.77,5.66A1.38,1.38,0,0,1,87,25.49L80.52,36a36.44,36.44,0,0,1,3.12,7.86l12.11,2.93a1.21,1.21,0,0,1,1.12,1.41V56.4a1.27,1.27,0,0,1-1.12,1.41L83.59,60.69a33.39,33.39,0,0,1-3.17,7.82L87,79.05a1.31,1.31,0,0,1-.19,1.81l-5.72,5.76a1.34,1.34,0,0,1-1.85.25L68.55,80.32a27,27,0,0,1-7.81,3.22l-3,12.11c-.09.79-.53,1.13-1.36,1.13Zm4.15-25.93A18.61,18.61,0,1,0,33.59,52.2,18.7,18.7,0,0,0,52.25,70.85Zm0-7.57A11,11,0,1,1,63.18,52.2,11.1,11.1,0,0,1,52.25,63.28Z"/></g></g></g></g></svg>