<svg xmlns="http://www.w3.org/2000/svg" viewBox="0 0 263.57 188.24"><defs><style>.cls-1,.cls-6,.cls-7{fill:#2980b9;}.cls-2,.cls-6{opacity:0.3;}.cls-3{fill:#fff;}.cls-4{fill:#e0e0e0;}.cls-5{fill:#f5f5f5;}.cls-6,.cls-7{isolation:isolate;}.cls-7{opacity:0.2;}</style></defs><g id="Layer_2" data-name="Layer 2"><g id="Layer_1-2" data-name="Layer 1"><g id="freepik--Folder--inject-456"><path class="cls-1" d="M107.25,4.53l14.36,17.16a12.64,12.64,0,0,0,10.63,4.5L196,21.5A18,18,0,0,1,215.3,38.12L224,156a18,18,0,0,1-16.62,19.24l-176.86,13a18,18,0,0,1-19.27-16.63L0,19.82A12.65,12.65,0,0,1,11.71,6.29L96.63,0A12.65,12.65,0,0,1,107.25,4.53Z"/><g class="cls-2"><path d="M107.25,4.53l14.36,17.16a12.64,12.64,0,0,0,10.63,4.5L196,21.5A18,18,0,0,1,215.3,38.12L224,156a18,18,0,0,1-16.62,19.24l-176.86,13a18,18,0,0,1-19.27-16.63L0,19.82A12.65,12.65,0,0,1,11.71,6.29L96.63,0A12.65,12.65,0,0,1,107.25,4.53Z"/></g><rect class="cls-3" x="12.26" y="12.53" width="65.69" height="5.04" rx="2.49" transform="translate(-0.98 3.35) rotate(-4.21)"/><rect class="cls-3" x="12.52" y="23.93" width="56.71" height="5.05" rx="2.5" transform="matrix(1, -0.07, 0.07, 1, -1.75, 2.92)"/><path class="cls-4" d="M213.16,168.5,27.35,182.19a8.51,8.51,0,0,1-9.09-7.84L9.83,59.78a8.51,8.51,0,0,1,7.84-9.09L203.49,37a8.5,8.5,0,0,1,9.09,7.84L221,159.41A8.51,8.51,0,0,1,213.16,168.5Z"/><rect class="cls-3" x="16.42" y="43.58" width="200.63" height="131.85" rx="8.49" transform="translate(-7.72 8.87) rotate(-4.21)"/><polygon class="cls-5" points="36.01 181.55 74.35 178.72 39.64 64.56 36.01 181.55"/><path class="cls-3" d="M249.3,136.52,65.58,167.45a8.53,8.53,0,0,1-9.79-7L36.72,47.19a8.54,8.54,0,0,1,7-9.78L227.44,6.48a8.52,8.52,0,0,1,9.79,7L256.3,126.75A8.52,8.52,0,0,1,249.3,136.52Z"/><rect class="cls-6" x="47.52" y="20.82" width="200.63" height="131.85" rx="8.49" transform="translate(-12.35 25.76) rotate(-9.56)"/><path class="cls-7" d="M225.11,30.88,56.49,59.26a3.77,3.77,0,0,1-4.32-3.07l-.94-5.63a3.75,3.75,0,0,1,3.07-4.31h0L222.92,17.86a3.75,3.75,0,0,1,4.32,3.07l.95,5.63A3.76,3.76,0,0,1,225.11,30.88Z"/><path class="cls-7" d="M226.93,41,58.07,69.44a3.64,3.64,0,0,0-3,4.17h0l.83,5a3.65,3.65,0,0,0,4.17,3h0L228.94,53.19A3.63,3.63,0,0,0,232,49h0l-.84-5A3.64,3.64,0,0,0,226.93,41Z"/><path class="cls-1" d="M249.56,174.7l-.36-.94a20.17,20.17,0,0,0,6.3-3.8l.66.75A21.31,21.31,0,0,1,249.56,174.7Z"/><path class="cls-1" d="M261.26,164.11l-.89-.45a20.38,20.38,0,0,0,2.14-10.8l-1.1-15,1-.07,1.1,15A21.53,21.53,0,0,1,261.26,164.11Z"/><path class="cls-1" d="M243.18,172.56,48.66,186.88h0l-18.17,1.31a18.23,18.23,0,0,0,16.84-19.52L41.49,89a12,12,0,0,1,11-12.88h.07L241.25,62.19a12,12,0,0,1,12.9,11v.08L260,153.08A18.21,18.21,0,0,1,243.18,172.56Z"/></g></g></g></svg>