<svg id="Layer_1" enable-background="new 0 0 512 512" height="512" viewBox="0 0 512 512" width="512" xmlns="http://www.w3.org/2000/svg"><path d="m256 512c-68.38 0-132.667-26.629-181.02-74.98-48.351-48.353-74.98-112.64-74.98-181.02s26.629-132.667 74.98-181.02c48.353-48.351 112.64-74.98 181.02-74.98s132.667 26.629 181.02 74.98c48.351 48.353 74.98 112.64 74.98 181.02s-26.629 132.667-74.98 181.02c-48.353 48.351-112.64 74.98-181.02 74.98zm0-472c-119.103 0-216 96.897-216 216s96.897 216 216 216 216-96.897 216-216-96.897-216-216-216zm0 372c-55.141 0-83.97-28.071-98.445-51.62-8.595-13.984-8.931-30.911-.896-45.278 7.968-14.25 23.046-23.102 39.35-23.102h119.984c16.304 0 31.382 8.852 39.35 23.102 8.034 14.367 7.698 31.293-.896 45.277-14.477 23.55-43.306 51.621-98.447 51.621zm-59.992-80c-2.584 0-3.889 1.644-4.437 2.624-.63 1.125-1.13 2.873.062 4.811 13.282 21.608 34.938 32.565 64.367 32.565s51.085-10.957 64.367-32.566c1.191-1.937.691-3.685.062-4.81-.548-.98-1.853-2.624-4.437-2.624zm146.992-92c-11.046 0-20-8.954-20-20v-55c0-11.046 8.954-20 20-20s20 8.954 20 20v55c0 11.046-8.954 20-20 20zm-155-20v-55c0-11.046-8.954-20-20-20s-20 8.954-20 20v55c0 11.046 8.954 20 20 20s20-8.954 20-20z"/></svg>