<svg xmlns="http://www.w3.org/2000/svg" viewBox="0 0 500 500"><g id="freepik--background-simple--inject-9"><path d="M423.2,202.14,422,198.33c-10-32-36.32-56.43-69-62.41a86.61,86.61,0,0,0-12.75-1.38c-30.85-1-61.84,14.77-79.46,40.5-10.36,15.13-16.88,33.9-32,44.2-19.63,13.41-45.8,7.47-68.52,1s-48.93-12.29-68.5,1.2c-12.26,8.45-19.13,23.1-22,37.8-7.53,38.92,10.68,79.92,40.47,105.47s69.48,37.05,108.59,38.82c54.81,2.47,111.62-14.06,152.56-51.25S435.08,256.24,423.2,202.14Z" style="fill:#f5f5f5"></path><circle cx="144.5" cy="154.72" r="32.7" transform="translate(-39.63 259.19) rotate(-76.53)" style="fill:#f5f5f5"></circle><circle cx="370.75" cy="417.26" r="32.7" transform="translate(-184.73 472.05) rotate(-54.01)" style="fill:#f5f5f5"></circle></g><g id="freepik--Character--inject-9"><path d="M228.52,160l-29.58,22L223,259.71l82.55-.64-2.79-28.75-1.95-45.68-17.4-36.8-14.89,5.37a.19.19,0,0,1-.15,0l-8.21-4.75-28.68,5.37Z" style="fill:#263238"></path><path d="M194,260.09H219.4l-.65-45.68L198.94,182a62.1,62.1,0,0,0-1.4,12.56C197.26,203,194,260.09,194,260.09Z" style="fill:#263238"></path><path d="M277.48,150.12s7.14-3.81,13.28-3a93.39,93.39,0,0,0,12.61.69l-7.6-31,20.78-9.25s14.68,37.1,15.8,46.31-.74,10.89-4.55,15c-2.86,3.06-18.34,13.22-18.34,13.22l-9.52,6.37-14.76-12Z" style="fill:#263238"></path><path d="M295.25,184.64a8.93,8.93,0,0,1-1.12-1.09,16.89,16.89,0,0,1-1.21-1.36c-.45-.55-1-1.15-1.5-1.89A43.13,43.13,0,0,1,288,175a49.41,49.41,0,0,1-3.05-7.07,48.65,48.65,0,0,1-1.79-7.49,42.75,42.75,0,0,1-.47-6.27c0-.89,0-1.7.06-2.41s.09-1.32.16-1.82a8.08,8.08,0,0,1,.24-1.53,9.59,9.59,0,0,1,0,1.55c0,.5-.07,1.1-.06,1.81s0,1.51,0,2.39a50,50,0,0,0,.58,6.21,51.87,51.87,0,0,0,1.81,7.4,52.56,52.56,0,0,0,3,7,47.25,47.25,0,0,0,3.25,5.31c.49.74,1,1.36,1.43,1.92s.81,1,1.14,1.41A9.28,9.28,0,0,1,295.25,184.64Z" style="fill:#455a64"></path><path d="M260.9,147.15s-10.41,31.71-10.08,45.48,0,47.46,0,47.46-15.89-10.53-18.05-42.46c-1.45-21.34-1.28-43.81-1.28-43.81Z" style="fill:#fafafa"></path><path d="M251.84,238.41a.78.78,0,0,1,0-.25c0-.2,0-.44,0-.75,0-.69.1-1.65.17-2.86.18-2.48.55-6.06,1.19-10.47s1.66-9.61,3-15.34,3.07-12,5.07-18.46c2.81-9.16,5.76-17.59,8.2-24.67l.19.29-7.43-.9-.51-.06.42-.28,7.43-4.94-.05.13c-.39-2.11-.7-3.76-.91-4.93-.09-.53-.16-1-.22-1.28a2.91,2.91,0,0,1-.05-.44,2.49,2.49,0,0,1,.12.43c.07.32.17.74.28,1.27.25,1.16.59,2.8,1,4.9l0,.08-.07.05-7.36,5-.09-.35,7.44.84.27,0-.09.26c-2.4,7.1-5.32,15.54-8.12,24.68-2,6.48-3.73,12.71-5.1,18.42s-2.39,10.9-3.1,15.29-1.11,8-1.36,10.43q-.17,1.81-.27,2.85c0,.3-.06.55-.08.74A.7.7,0,0,1,251.84,238.41Z" style="fill:#455a64"></path><path d="M250.44,242.55l-.24-.12-.66-.39c-.58-.36-1.42-.89-2.5-1.59-2.16-1.42-5.27-3.47-8.9-6.32a11.55,11.55,0,0,1-2.14-3c-.61-1.11-1.18-2.29-1.75-3.52-1.12-2.47-2.2-5.16-3.29-8-2.16-5.69-4.33-12-6.5-18.71-1.94-6-3.72-11.75-5.29-17.06l0-.09.05-.09c1.88-3.67,3.63-7.1,5.22-10.22l.19.31-5.2,0H219l.21-.29c2.82-4.14,5.12-7.51,6.74-9.87.78-1.14,1.41-2,1.85-2.67l.5-.69c.11-.15.17-.23.18-.22a1.15,1.15,0,0,1-.14.25c-.11.19-.26.42-.45.72-.42.66-1,1.57-1.77,2.72l-6.6,10-.16-.3,5.2,0H225l-.16.31-5.17,10.26,0-.18c1.58,5.29,3.37,11.05,5.31,17,2.17,6.68,4.33,13,6.46,18.7,1.07,2.85,2.14,5.53,3.24,8,.55,1.23,1.1,2.41,1.7,3.5a11.24,11.24,0,0,0,2,2.9c3.58,2.86,6.67,5,8.78,6.43L249.6,242l.63.44C250.38,242.49,250.45,242.54,250.44,242.55Z" style="fill:#455a64"></path><path d="M256.26,259.71a14.18,14.18,0,0,1-1.26-2.35c-.71-1.49-1.69-3.54-2.56-5.91s-1.45-4.57-1.87-6.16a13.59,13.59,0,0,1-.56-2.61,13.68,13.68,0,0,1,.91,2.5c.51,1.57,1.15,3.75,2,6.09s1.79,4.42,2.41,5.94A12.85,12.85,0,0,1,256.26,259.71Z" style="fill:#455a64"></path><path d="M275.57,224.8a3.8,3.8,0,0,1-.49.93c-.34.59-.87,1.41-1.55,2.41a74.41,74.41,0,0,1-5.82,7.42,72.72,72.72,0,0,1-6.72,6.63c-.92.79-1.68,1.41-2.22,1.81a4.11,4.11,0,0,1-.86.6,38.19,38.19,0,0,1,2.83-2.68c1.76-1.64,4.13-4,6.58-6.7s4.48-5.36,5.91-7.3S275.51,224.76,275.57,224.8Z" style="fill:#455a64"></path><path d="M223,259.71c-.14,0-4.12-12.36-8.9-27.69s-8.53-27.81-8.4-27.86,4.12,12.36,8.9,27.7S223.13,259.67,223,259.71Z" style="fill:#455a64"></path><path d="M264.06,196.68a5.16,5.16,0,0,1,.43.87c.27.64.64,1.49,1.1,2.55l-.17-.07c4.16-2.15,12.24-6.22,21.54-10.83l-.1.39v0l-3.09-4.31.34.07a136.3,136.3,0,0,1-14.24,7.57c-1.84.84-3.33,1.46-4.36,1.88l-1.2.45a1.4,1.4,0,0,1-.42.13,2.2,2.2,0,0,1,.39-.21l1.15-.54c1-.46,2.48-1.14,4.3-2a160,160,0,0,0,14.11-7.7l.2-.13.14.2,3.1,4.3h0l.18.25-.27.14c-9.29,4.61-17.42,8.58-21.66,10.59l-.13.06,0-.13-1-2.59A5.24,5.24,0,0,1,264.06,196.68Z" style="fill:#455a64"></path><polygon points="240.11 169.95 242.35 173.19 245.83 173.19 247.3 168.81 243.13 164.43 240.11 169.95" style="fill:#2980B9"></polygon><path d="M242.88,172.23a37.13,37.13,0,0,0-3,9.8c-.37,3.2-2.1,31.3-2.1,31.3L240.34,227s4.18,8.82,10.47,13.14c0,0,.42-44.78,0-49.52a20.29,20.29,0,0,1,.28-3,18.7,18.7,0,0,0-2.64-11.74c-1.37-2.25-2.64-4.31-2.65-4.23A18,18,0,0,1,242.88,172.23Z" style="fill:#2980B9"></path><path d="M305.55,170.11a3.61,3.61,0,0,1-.48-.79,13.57,13.57,0,0,1-.93-2.34,30.44,30.44,0,0,1-1.05-8.21c0-3.23.2-6.14.25-8.24a23.27,23.27,0,0,0,0-2.47,5,5,0,0,1-.09-.91,2.64,2.64,0,0,1,.29.88,15,15,0,0,1,.2,2.5c0,2.12-.12,5-.1,8.24a35.84,35.84,0,0,0,.88,8.11C305,168.91,305.64,170.06,305.55,170.11Z" style="fill:#455a64"></path><path d="M256.24,162.85a4.49,4.49,0,0,1-.2.84q-.27.9-.69,2.34c-.64,2.09-1.53,4.95-2.58,8.37l-.11.36-.26-.27-9.46-9.88.42-.06-.27.5c-2.52,4.57-4.86,8.83-6.83,12.42l-.22.41-.17-.43-3.25-8.2-.88-2.31a4.66,4.66,0,0,1-.26-.82,4.89,4.89,0,0,1,.39.77c.25.59.58,1.34,1,2.26.86,2,2,4.81,3.42,8.13l-.39,0,6.75-12.46c.09-.17.19-.34.27-.5l.17-.31.25.26,9.4,9.94-.37.08,2.76-8.31c.33-1,.6-1.72.8-2.31A4.8,4.8,0,0,1,256.24,162.85Z" style="fill:#263238"></path><path d="M246.09,171.93c0,.14-.78.49-1.82.79s-1.93.44-2,.3.78-.5,1.82-.8S246.05,171.79,246.09,171.93Z" style="fill:#263238"></path><path d="M242.49,172.7a21.66,21.66,0,0,1,2.35-6.28,10.73,10.73,0,0,1-.93,3.23A11,11,0,0,1,242.49,172.7Z" style="fill:#263238"></path><path d="M243.34,187.66a9.7,9.7,0,0,1-.07-2.21c0-1.37.1-3.25.2-5.33s.24-4,.36-5.32a9.42,9.42,0,0,1,.3-2.19,9.76,9.76,0,0,1,.07,2.22c0,1.36-.1,3.24-.21,5.32s-.23,3.95-.35,5.31A9.72,9.72,0,0,1,243.34,187.66Z" style="fill:#263238"></path><path d="M246.91,187.87a9.68,9.68,0,0,1-.59-2.22c-.3-1.38-.65-3.3-1-5.43s-.57-4.08-.71-5.48a8.73,8.73,0,0,1-.1-2.29,10.56,10.56,0,0,1,.47,2.24l.86,5.45c.31,2,.59,3.85.83,5.45A10.62,10.62,0,0,1,246.91,187.87Z" style="fill:#263238"></path><path d="M276.43,96.35s6.51,4.53,8,6.46a10.34,10.34,0,0,0,3.1,2.73l11.25,5,12.95-5.49L305,81.35s-3.9-9-7-8.15c0,0-1.52.42-.9,2.41,0,0-2.68-8.85-5.36-8.07s-.57,4.29.58,7.56,1.44,4.31,1.44,4.31l-4.16-9.73s-1-2.67-3.12-1.45.49,5.23.76,6.77,4.26,11.06,4.26,11.06-4.31-7.2-4.52-7.68-1.81-6.1-4.33-5.2.48,6.86,1,8.65,4.75,9.35,4.93,10.76,1.21,4.19.14,5.26-4.89-3.42-6.77-3.66S276.53,93.4,276.43,96.35Z" style="fill:#ffbe9d"></path><path d="M300.37,100.38a10.58,10.58,0,0,0-1.45-1.31,7.75,7.75,0,0,0-4.46-1.13c-1.86,0-3.52.36-4.79.42a4,4,0,0,1-1.49-.2c-.34-.13-.48-.28-.47-.3a5.63,5.63,0,0,0,1.93.13,36.19,36.19,0,0,1,4.81-.57,7.38,7.38,0,0,1,4.69,1.35A3,3,0,0,1,300.37,100.38Z" style="fill:#eb996e"></path><path d="M301.49,86.23a2.54,2.54,0,0,1-.83-1.6c-.31-1.08-.19-2.68-.88-4.1a11.87,11.87,0,0,0-1.36-1.86A6.93,6.93,0,0,1,297.34,77c-.49-1.07-.26-1.83-.2-1.8a5.53,5.53,0,0,0,.53,1.64,8.42,8.42,0,0,0,1.11,1.5,10.58,10.58,0,0,1,1.46,1.93,6.42,6.42,0,0,1,.6,2.36c.06.73.1,1.38.18,1.91A11.28,11.28,0,0,0,301.49,86.23Z" style="fill:#eb996e"></path><path d="M295.77,116.79a19,19,0,0,0,14.78-1c7.69-3.91,6-8.26,6-8.26Z" style="fill:#455a64"></path><path d="M298.8,110.63l2.51,7.45c6.16-.2,10.33-1.34,13.23-5l-3.07-9Z" style="fill:#ffbe9d"></path><path d="M296.62,113.2l1.58,4.27s5,2,11.65-.94c0,0,4.34-1.56,6.13-5.33l-1.81-4.93Z" style="fill:#f5f5f5"></path><g style="opacity:0.30000000000000004"><path d="M283.88,162.85a104.68,104.68,0,0,0,4,21.64,29.61,29.61,0,0,0,10.81,14.75l2.79,2-.58-13.4S292.06,188.86,283.88,162.85Z"></path><path d="M301.55,201.32l-.05,0-2.79-2a30.41,30.41,0,0,1-6.58-6.53,28.94,28.94,0,0,1-4.23-8.23,104.4,104.4,0,0,1-4-21.65l0-.21.06.2A81.63,81.63,0,0,0,290,177.72a30.21,30.21,0,0,0,5.48,7.38,10.87,10.87,0,0,0,3.94,2.49,4,4,0,0,0,1.5.25h0v0Zm-17.63-38.26a105,105,0,0,0,4,21.42,29.15,29.15,0,0,0,4.23,8.22,30.1,30.1,0,0,0,6.57,6.52l2.75,2-.57-13.33h-.1a4.51,4.51,0,0,1-1.4-.26,11,11,0,0,1-4-2.51,29.65,29.65,0,0,1-5.48-7.39A80.24,80.24,0,0,1,283.92,163.06Z" style="fill:#455a64"></path></g><g style="opacity:0.30000000000000004"><path d="M252.24,236.86S264.1,193,267.69,182s5.63-17.6,5.63-17.6l-6.58-.83,4.21-2.73L269,154.72l.67,5.11-7.39,5,7.43.87s-13.85,41.23-15.63,54.42C252.12,234.7,252.24,236.86,252.24,236.86Z"></path><path d="M252.23,237v-.15s-.1-2.33,1.84-16.76c1.74-12.9,15.18-53.1,15.62-54.4l-7.47-.87.06,0,7.38-5-.68-5.09h0l2,6.17h0l-4.15,2.69,6.55.83v0c0,.07-2.09,6.82-5.64,17.61s-15.32,54.38-15.44,54.82Zm10.12-72.21,7.39.86v0c-.13.41-13.86,41.37-15.62,54.41-1.66,12.32-1.83,15.8-1.84,16.57.84-3.1,12-44.2,15.4-54.64s5.47-17.09,5.62-17.58l-6.62-.83.06,0,4.19-2.72L269.06,155l.64,4.84h0Z" style="fill:#455a64"></path></g><g style="opacity:0.30000000000000004"><polygon points="266.23 199.77 267.35 201.27 287.07 190.89 286.49 189.72 266.23 199.77"></polygon><path d="M267.34,201.3v0l-1.14-1.51,0,0,20.29-10.06,0,0,.59,1.19h0Zm-1.08-1.52,1.09,1.46L287,190.88l-.56-1.12Z" style="fill:#455a64"></path></g><g style="opacity:0.30000000000000004"><path d="M252.93,246.83a2.53,2.53,0,1,0,4.73-1.58,27.85,27.85,0,0,0,16-16c-3.87,2.36-6.84,5.92-10,9.21s-6.61,6.5-11,7.8"></path></g><path d="M255.43,243.29a2.31,2.31,0,1,0-1,4.51,2.43,2.43,0,0,0,2.78-1.81A2.32,2.32,0,0,0,255.43,243.29Z" style="fill:#455a64"></path><g style="opacity:0.30000000000000004"><path d="M240.34,227s5.84,8.43,7.9,8.53c1.26.06,2.6-44.91,2.6-44.91s.12,49.21,0,49.52C250,239.84,243.89,234.56,240.34,227Z"></path><path d="M250.82,240.12h0a19.17,19.17,0,0,1-4.21-3.82,38.87,38.87,0,0,1-6.27-9.33l0,0c.06.09,5.86,8.43,7.89,8.52h0c1.22-1.13,2.52-44.43,2.53-44.87h.05c0,2,.12,49.22,0,49.53ZM240.49,227.2c3.49,7.29,9.39,12.5,10.3,12.86.12-1.14.05-39.75,0-48-.25,7.85-1.39,42.34-2.51,43.37l-.06,0h0C246.36,235.41,241.48,228.61,240.49,227.2Z" style="fill:#455a64"></path></g><g style="opacity:0.30000000000000004"><path d="M242.46,173.22l1.28-.17a34.3,34.3,0,0,0-.2,8.82l.63-5.5c.55,3.14,1.11,6.29,1.66,9.43a.86.86,0,0,0,.19.47c.12.12.36.14.44,0a.36.36,0,0,0,0-.27l-2-13.2,1.35-.76a8,8,0,0,0-3.54,1"></path><path d="M242.31,173a2.66,2.66,0,0,1,.84-.48,8.12,8.12,0,0,1,2.7-.64l.58,0-.51.3-1.34.79.09-.17c.32,2,.73,4.58,1.19,7.46.22,1.46.46,3,.71,4.61.06.42.12.78.18,1.26a.5.5,0,0,1-.33.5.59.59,0,0,1-.53-.1,1.12,1.12,0,0,1-.33-.73q-.23-1.26-.45-2.55c-.41-2.38-.81-4.66-1.19-6.81h.49c-.23,2-.45,3.81-.66,5.49l-.2,1.67-.23-1.66a24.78,24.78,0,0,1-.07-5.41c.13-1.5.29-2.67.4-3.44l.1.09a6.29,6.29,0,0,1-1.29.08,7.21,7.21,0,0,1,1.27-.25h.1v.1c0,.79-.17,2-.25,3.45a25.32,25.32,0,0,0,.18,5.32h-.43c.19-1.68.39-3.53.6-5.5l.19-1.72.3,1.71c.38,2.14.79,4.42,1.21,6.8q.24,1.29.45,2.55a.9.9,0,0,0,.13.41s.07,0,.07,0,0,.06,0,0-.05,0,0,0l-.17-1.19c-.24-1.61-.47-3.16-.68-4.62-.41-2.89-.76-5.43-1-7.48l0-.12.1,0,1.36-.75.08.27a8.73,8.73,0,0,0-2.65.49C242.62,172.87,242.32,173,242.31,173Z" style="fill:#455a64"></path></g><path d="M270.55,83.43c-4.63-1.1-9.11,3.27-13.84,2.65-2.87-.37-5.15-2.5-7.76-3.75a14.56,14.56,0,0,0-13,.33c-3.73,2.2-6.08,4.45-6.33,8.77-3.63-1.79-9.2,3-10.92,7.37s-.94,8.76.48,13.24a62.38,62.38,0,0,0,11.64,21.18c.47.55,1.19,1.14,1.81.8a1.57,1.57,0,0,0,.6-1.3c.4-4.22-.4-8.44-1-12.63s-1.09-8.51,0-12.6,4-8,8.07-9c3-.8,6.27,0,9.08,1.35s5.34,3.25,8.05,4.82a17.29,17.29,0,0,0,8.83,2.79c3.12-.06,6.37-1.74,7.52-4.65s-.59-6.83-3.69-7.28a6.15,6.15,0,0,0,.47-12Z" style="fill:#263238"></path><path d="M270.88,133.47c-.5-5.77-2.49-17.57-4.42-28.22A22.34,22.34,0,0,0,242.27,87l-1.15.11c-12.34,2-17.58,13.53-15.28,25.81l5.84,42.32,11.45,9.2L260.06,150l.45-1.69S271.92,145.41,270.88,133.47Z" style="fill:#ffbe9d"></path><path d="M260.51,148.35a28.38,28.38,0,0,1-16.33-2.79s4.08,6.74,15.88,4.48Z" style="fill:#eb996e"></path><path d="M263.05,115.25a1.71,1.71,0,0,1-1.47,1.88,1.65,1.65,0,0,1-1.91-1.36,1.71,1.71,0,0,1,1.47-1.88A1.63,1.63,0,0,1,263.05,115.25Z" style="fill:#263238"></path><path d="M264.47,111.33c-.19.25-1.57-.58-3.4-.4s-3.09,1.24-3.31,1,.07-.52.61-1a4.72,4.72,0,0,1,2.62-1.1,4.53,4.53,0,0,1,2.74.59C264.34,110.84,264.57,111.22,264.47,111.33Z" style="fill:#263238"></path><path d="M245.8,117.18a1.71,1.71,0,0,1-1.48,1.88,1.62,1.62,0,0,1-1.9-1.36,1.7,1.7,0,0,1,1.47-1.88A1.65,1.65,0,0,1,245.8,117.18Z" style="fill:#263238"></path><path d="M246.48,113.46c-.19.24-1.57-.59-3.41-.4s-3.08,1.24-3.3,1,.06-.51.61-1A4.72,4.72,0,0,1,243,112a4.54,4.54,0,0,1,2.74.6C246.34,113,246.58,113.35,246.48,113.46Z" style="fill:#263238"></path><path d="M254.48,126.4a12.47,12.47,0,0,1,2.93-.83c.46-.1.89-.23.94-.56a2.38,2.38,0,0,0-.45-1.36l-1.74-3.43c-2.42-4.88-4.23-8.92-4-9s2.33,3.79,4.75,8.68q.89,1.8,1.68,3.45a2.74,2.74,0,0,1,.43,1.82,1.17,1.17,0,0,1-.71.76,3.38,3.38,0,0,1-.78.19A12.34,12.34,0,0,1,254.48,126.4Z" style="fill:#263238"></path><path d="M249.21,128.2c.3,0,.5,1.94,2.34,3.19s3.94.81,4,1.09c0,.12-.43.43-1.32.55a5,5,0,0,1-3.32-.8,4.38,4.38,0,0,1-1.83-2.69C248.9,128.72,249.07,128.2,249.21,128.2Z" style="fill:#263238"></path><path d="M245.74,104c-.14.52-2,.46-4.12.94s-3.8,1.23-4.13.81c-.15-.2.1-.7.76-1.25a7.33,7.33,0,0,1,6.28-1.33C245.35,103.45,245.79,103.8,245.74,104Z" style="fill:#263238"></path><path d="M263.27,106.09c-.28.45-1.58.14-3.1.27s-2.78.56-3.12.15c-.15-.19,0-.63.53-1.08a4.54,4.54,0,0,1,5-.34C263.18,105.46,263.4,105.88,263.27,106.09Z" style="fill:#263238"></path><path d="M227.68,121.65c-.21-.07-8.43-1.61-7.37,6.52s9,5.38,9,5.15S227.68,121.65,227.68,121.65Z" style="fill:#ffbe9d"></path><path d="M226.42,130.56s-.13.12-.35.26A1.4,1.4,0,0,1,225,131c-.9-.2-1.8-1.47-2-2.93a4.62,4.62,0,0,1,.13-2.08,1.67,1.67,0,0,1,.92-1.23.75.75,0,0,1,.89.28c.13.21.1.38.15.39s.16-.16.05-.49a1,1,0,0,0-.39-.46,1.06,1.06,0,0,0-.81-.11,2,2,0,0,0-1.32,1.46,5,5,0,0,0-.19,2.33c.27,1.63,1.31,3.05,2.53,3.24a1.54,1.54,0,0,0,1.27-.39C226.43,130.76,226.45,130.57,226.42,130.56Z" style="fill:#eb996e"></path><path d="M265.5,94.1a15.62,15.62,0,0,0-5.58-5.28,26.7,26.7,0,0,0-16-4,21.76,21.76,0,0,0-14.61,7.24,22.94,22.94,0,0,0-5.14,12.15,40.5,40.5,0,0,0,.8,14.6c.53,1.88,1.68,2.47,3.17,3.75.92.79,2.43,1.23,3.32.39a3.24,3.24,0,0,0,.76-2c1-6.45,1.83-13.38-1.08-19.21a18.82,18.82,0,0,1,5.11-5.72,9.75,9.75,0,0,1,7.31-1.75c3.75.76,6.34,4.08,9.49,6.25a17.33,17.33,0,0,0,15.65,1.94Z" style="fill:#263238"></path><path d="M218.36,109.22c0-.09.88-.07,2.25-.3a14.67,14.67,0,0,0,9.09-5.38c.86-1.09,1.26-1.87,1.35-1.83a6.27,6.27,0,0,1-1.05,2.05,13.31,13.31,0,0,1-9.34,5.53A5.73,5.73,0,0,1,218.36,109.22Z" style="fill:#e0e0e0"></path><path d="M218.86,113.23c0-.09.91-.26,2.34-.76a18.18,18.18,0,0,0,9.09-7.14c.83-1.27,1.22-2.13,1.3-2.1a7.29,7.29,0,0,1-1,2.29,16.39,16.39,0,0,1-4,4.53,16.19,16.19,0,0,1-5.34,2.77A7.45,7.45,0,0,1,218.86,113.23Z" style="fill:#e0e0e0"></path><path d="M272.31,98A2.55,2.55,0,0,1,272,99.4a6.58,6.58,0,0,1-5.47,3.95,2.7,2.7,0,0,1-1.45-.13,9.75,9.75,0,0,1,1.4-.23,7.37,7.37,0,0,0,5.19-3.75C272.07,98.49,272.23,98,272.31,98Z" style="fill:#e0e0e0"></path><path d="M273.43,99.58a2.77,2.77,0,0,1-.34,1.35,7.61,7.61,0,0,1-5,4.27,2.56,2.56,0,0,1-1.38.13,13.17,13.17,0,0,0,4-2.1A13,13,0,0,0,273.43,99.58Z" style="fill:#e0e0e0"></path><rect x="174.15" y="263.27" width="156.3" height="218.69" style="fill:#455a64"></rect><path d="M332.48,309.62h-160a3.65,3.65,0,0,1-3.65-3.66h0a3.65,3.65,0,0,1,3.65-3.66h160a3.66,3.66,0,0,1,3.66,3.66h0A3.66,3.66,0,0,1,332.48,309.62Z" style="fill:#455a64"></path><rect x="163.93" y="257.1" width="176.5" height="12.33" style="fill:#455a64"></rect><path d="M332.89,309.62c0,.14-36,.26-80.4.26s-80.4-.12-80.4-.26,36-.26,80.4-.26S332.89,309.47,332.89,309.62Z" style="fill:#263238"></path><path d="M332.89,302.3c0,.15-36,.26-80.4.26s-80.4-.11-80.4-.26,36-.26,80.4-.26S332.89,302.16,332.89,302.3Z" style="fill:#263238"></path><path d="M332.89,269.15c0,.15-36,.27-80.4.27s-80.4-.12-80.4-.27,36-.26,80.4-.26S332.89,269,332.89,269.15Z" style="fill:#263238"></path><path d="M291.79,296s0-.12,0-.33l0-1c0-.87,0-2.11,0-3.71,0-3.24-.05-7.93-.08-13.87l.15.15-80.21.11h0l.26-.26h0v9.57q0,4.72,0,9.29l-.25-.25,57.16.11,16.89.08,4.56,0,1.19,0h.41a2.45,2.45,0,0,1-.38,0l-1.16,0-4.5,0-16.83.07-57.34.12h-.26V277.11h0l.26-.26h0l80.21.11h.15v.15c0,6-.06,10.7-.08,14,0,1.59,0,2.82,0,3.67v.94A1.45,1.45,0,0,1,291.79,296Z" style="fill:#263238"></path><path d="M202,482c-.14,0-.26-34.84-.26-77.79s.12-77.8.26-77.8.26,34.82.26,77.8S202.13,482,202,482Z" style="fill:#263238"></path><path d="M302.48,482c-.15,0-.27-34.84-.27-77.79s.12-77.8.27-77.8.26,34.82.26,77.8S302.62,482,302.48,482Z" style="fill:#263238"></path><path d="M311.66,318.79a3.73,3.73,0,0,0,.26-1.64,4.11,4.11,0,0,0-.46-1.53c-1-2-3.14-3.62-3.5-5.71H195.66l.16.2a4.3,4.3,0,0,1,.36.71,5.86,5.86,0,0,1,.39,2.43,7.17,7.17,0,0,1-.1.81,9.83,9.83,0,0,1-.64,2c-.27.64-.59,1.26-.91,1.89s-.71,1.35-1,2.05c-.88,2-1.32,4.4-.13,6.2a1.67,1.67,0,0,0,.12.16,5.69,5.69,0,0,0,1.19,1.16c.45.34.93.64,1.41.95a7.88,7.88,0,0,1,2.55,2.16,5.71,5.71,0,0,1,.66,4c-.45,3.55-2.55,7.52-.12,10a3.82,3.82,0,0,0,.86.65,9.24,9.24,0,0,0,3.5.92c2.09.26,4.22.39,5.37,2a3.74,3.74,0,0,1,.49,1c.58,1.77.15,3.94,1.15,5.56s2.76,2,4.71,2.12c2.57.2,5.43,0,7.19,1.73a4.94,4.94,0,0,1,.35.45,4.7,4.7,0,0,1,.34.44c1.62,2.67.72,6.9,3.21,9a3.91,3.91,0,0,0,1.52.77h0a5.52,5.52,0,0,0,1.08.16,7.65,7.65,0,0,0,1.34-.08c2.27-.31,4.77-1.41,7.12-1.38H238a6.11,6.11,0,0,1,1.34.2c3.54,1,5.87,5.78,9.48,5l.32-.1a7.76,7.76,0,0,0,3-2.17c.3-.3.61-.6.92-.88a5,5,0,0,1,2.51-1.38,4.89,4.89,0,0,1,3.32.89c1.46.88,2.87,2.11,4.52,2.48,2.42.53,4.41-.81,6.35-2.54a40.7,40.7,0,0,1,4.93-4.16c.19-.12.38-.26.57-.36a6.66,6.66,0,0,1,2.7-.84c2.17-.14,4.57.92,6.64,1h0a4.06,4.06,0,0,0,2.16-.46,3.68,3.68,0,0,0,.62-.46,4.78,4.78,0,0,0,1.21-3.7v0c0-1.06-.1-2.18-.05-3.24a7.19,7.19,0,0,1,.11-1,5,5,0,0,1,.12-.53l.06-.2a3.78,3.78,0,0,1,.62-1.17c2.28-2.9,7.7-.81,10.16-3.57a4.15,4.15,0,0,0,.6-.92,6.41,6.41,0,0,0,.49-1.63c.21-1.15.24-2.39.51-3.54a5.49,5.49,0,0,1,.62-1.62,3.87,3.87,0,0,1,.56-.72l.11-.15h0c.1-.1.22-.19.32-.28,1.1-1,2.55-1.69,3.75-2.58a5.22,5.22,0,0,0,1.77-2c.95-2.11-.15-4.35-1-6.62a13.2,13.2,0,0,1-.69-2.28c0-.16-.06-.32-.08-.47s0-.11,0-.17a5,5,0,0,1,.09-1.72C307.3,323.13,310.68,321.34,311.66,318.79Z" style="fill:#2980B9"></path><path d="M207,321.71s.52.13,1.16.69a6.17,6.17,0,0,1,1.83,6.05c-.22.82-.54,1.25-.59,1.22s.11-.5.23-1.29a7.07,7.07,0,0,0-.22-3.05,7.18,7.18,0,0,0-1.5-2.67C207.41,322.08,207,321.79,207,321.71Z" style="fill:#fff"></path><path d="M294.67,331.52a7.3,7.3,0,0,1-.24,2.47,16.07,16.07,0,0,1-2.35,5.51,16.32,16.32,0,0,1-4.19,4.29A7.23,7.23,0,0,1,285.7,345c-.05-.08.78-.53,2-1.46a18.65,18.65,0,0,0,4-4.28,18.88,18.88,0,0,0,2.43-5.31C294.48,332.45,294.58,331.51,294.67,331.52Z" style="fill:#fff"></path><path d="M294.19,325.91c.12.14-.93.8-1.31,2.08a11.42,11.42,0,0,0-.29,1.74c0,.46-.12.75-.19.75s-.14-.29-.17-.76a5.18,5.18,0,0,1,.15-1.88,3.14,3.14,0,0,1,1.1-1.59C293.87,326,294.15,325.86,294.19,325.91Z" style="fill:#fff"></path><path d="M300.61,309.91s.16.2.37.6a10.21,10.21,0,0,1,.69,1.79,12.4,12.4,0,0,1,.48,2.81,14.15,14.15,0,0,1-.25,3.49,15.24,15.24,0,0,1-2.59,5.76,12.23,12.23,0,0,1-1.24,1.46c-.32.32-.51.48-.54.45s.6-.79,1.48-2.12a17,17,0,0,0,2.38-5.65,14.48,14.48,0,0,0-.08-6.11C301,310.85,300.52,310,300.61,309.91Z" style="fill:#fff"></path><path d="M277.11,350.87s-.22.23-.68.57a21.25,21.25,0,0,1-2,1.32,31.11,31.11,0,0,1-15.33,4.13,21.33,21.33,0,0,1-2.43-.11,3.35,3.35,0,0,1-.87-.15c0-.09,1.26,0,3.29-.11a36.52,36.52,0,0,0,7.81-1.2,37.14,37.14,0,0,0,7.35-2.88C276,351.49,277.06,350.79,277.11,350.87Z" style="fill:#fff"></path><path d="M244.38,356.37a3,3,0,0,1-.9.08,15.53,15.53,0,0,1-2.46-.12,23.32,23.32,0,0,1-14.28-7.19,16,16,0,0,1-1.56-1.9,3.1,3.1,0,0,1-.47-.77c.08-.06.84,1,2.3,2.42A25.71,25.71,0,0,0,241.07,356C243.09,356.28,244.38,356.28,244.38,356.37Z" style="fill:#fff"></path><path d="M218.44,342.62s-.25.08-.71.09a8.82,8.82,0,0,1-1.93-.22,10.39,10.39,0,0,1-8.16-9,8.53,8.53,0,0,1,0-1.95c0-.45.11-.7.15-.69s0,1,.23,2.59a10.77,10.77,0,0,0,7.88,8.69C217.43,342.56,218.44,342.53,218.44,342.62Z" style="fill:#fff"></path><path d="M204.5,321.61a4.76,4.76,0,0,1-1.15-1.47,10.32,10.32,0,0,1-1.36-4.28,9.27,9.27,0,0,1,.74-4.44,4.22,4.22,0,0,1,1-1.56,14.48,14.48,0,0,1-.67,1.7,10.26,10.26,0,0,0-.56,4.26,11.81,11.81,0,0,0,1.17,4.15A11.78,11.78,0,0,1,204.5,321.61Z" style="fill:#fff"></path><path d="M215.61,345a1.74,1.74,0,0,1-.73.08,8.82,8.82,0,0,1-2-.22,10.77,10.77,0,0,1-8.44-9.25,9.85,9.85,0,0,1,0-2,1.86,1.86,0,0,1,.15-.72c.09,0,0,1.05.25,2.67a11.11,11.11,0,0,0,8.16,9C214.56,344.89,215.61,344.86,215.61,345Z" style="fill:#fff"></path><path d="M210.24,321.14c0-.05.51.11,1.14.61a5.7,5.7,0,0,1,2,5.7c-.19.79-.47,1.21-.53,1.18a7.1,7.1,0,0,1,.17-1.25,6.65,6.65,0,0,0-.29-2.89,6.72,6.72,0,0,0-1.54-2.47C210.61,321.48,210.2,321.21,210.24,321.14Z" style="fill:#fff"></path><path d="M199.52,321.45A11.81,11.81,0,0,1,200,310.1a24.61,24.61,0,0,0-1.19,5.63A24.91,24.91,0,0,0,199.52,321.45Z" style="fill:#fff"></path><path d="M225.84,345.48c-.07,0-.21-.4-.42-1.06a9.9,9.9,0,0,0-1-2.44,4.17,4.17,0,0,0-1.93-1.63c-.61-.24-1.05-.21-1.06-.3s.44-.23,1.17-.05a3.89,3.89,0,0,1,2.26,1.7,7.16,7.16,0,0,1,.95,2.63C225.9,345,225.91,345.47,225.84,345.48Z" style="fill:#fff"></path><path d="M229,343.14a9.64,9.64,0,0,0-2.07-3.44,9.53,9.53,0,0,0-3.58-1.83c0-.07.49-.13,1.26,0a5.77,5.77,0,0,1,4.27,4C229.06,342.65,229,343.14,229,343.14Z" style="fill:#fff"></path><path d="M243.24,362a3.59,3.59,0,0,1-1,0,18.42,18.42,0,0,1-2.71-.32,23.68,23.68,0,0,1-3.91-1.06,25.64,25.64,0,0,1-8.46-5.1,25.06,25.06,0,0,1-2.77-3,18.37,18.37,0,0,1-1.54-2.25,4.11,4.11,0,0,1-.46-.89c.09,0,.81,1.17,2.29,2.9a29.26,29.26,0,0,0,2.79,2.84,27.88,27.88,0,0,0,8.32,5,28.56,28.56,0,0,0,3.81,1.15C241.82,361.85,243.24,361.93,243.24,362Z" style="fill:#fff"></path><path d="M278.44,353.6a4.23,4.23,0,0,1-.7.77,10,10,0,0,1-.91.81,15.28,15.28,0,0,1-1.27,1,25.08,25.08,0,0,1-3.59,2.19,29.16,29.16,0,0,1-4.82,1.83,28.3,28.3,0,0,1-5.09.85,23.8,23.8,0,0,1-4.2-.07,13.08,13.08,0,0,1-1.61-.22,10.33,10.33,0,0,1-1.19-.24,3.78,3.78,0,0,1-1-.31c0-.1,1.46.25,3.81.41a29.28,29.28,0,0,0,4.15-.05,30.17,30.17,0,0,0,5-.87,32,32,0,0,0,4.75-1.77,27.76,27.76,0,0,0,3.59-2.05C277.31,354.55,278.37,353.53,278.44,353.6Z" style="fill:#fff"></path><path d="M297.3,333s.06.25.06.71a12.72,12.72,0,0,1-.19,1.92A15.78,15.78,0,0,1,290.25,346a11.23,11.23,0,0,1-1.71.92c-.42.18-.66.26-.67.22s.87-.51,2.17-1.44a17.49,17.49,0,0,0,6.77-10.16C297.17,334,297.21,333,297.3,333Z" style="fill:#fff"></path><path d="M305.81,310.73a2,2,0,0,1,.31.69,12.11,12.11,0,0,1,.49,2,14.23,14.23,0,0,1-4.14,12.48,11.29,11.29,0,0,1-1.59,1.3,2.24,2.24,0,0,1-.66.37c-.05-.08.83-.69,2-1.93a15.26,15.26,0,0,0,4-12.17C306.06,311.78,305.72,310.76,305.81,310.73Z" style="fill:#fff"></path><path d="M289.13,329.42a2.72,2.72,0,0,1,.24-2.52c.66-1.33,1.85-1.8,1.89-1.66s-.85.73-1.43,1.9A16.47,16.47,0,0,0,289.13,329.42Z" style="fill:#fff"></path><path d="M273.4,345.67a2.86,2.86,0,0,1,.47-1.39,8.68,8.68,0,0,1,5.49-4.3,2.91,2.91,0,0,1,1.47-.13,11.48,11.48,0,0,0-7.43,5.82Z" style="fill:#fff"></path><path d="M284,343.66c0,.16-2.15.65-4.51,2s-3.93,2.94-4,2.82a12.69,12.69,0,0,1,8.55-4.82Z" style="fill:#fff"></path><path d="M253.09,355.41a12,12,0,0,0-3.6-1,11.84,11.84,0,0,0-3.66.69c0-.05.29-.36.94-.67a5.93,5.93,0,0,1,2.74-.54,5.77,5.77,0,0,1,2.69.75C252.83,355,253.13,355.36,253.09,355.41Z" style="fill:#fff"></path><path d="M254.36,351.64a12.93,12.93,0,0,0-3.33-1,13.57,13.57,0,0,0-3.47.36s.29-.32.93-.56a5.93,5.93,0,0,1,5.08.51C254.14,351.27,254.4,351.59,254.36,351.64Z" style="fill:#fff"></path><path d="M311.92,317.15a4.11,4.11,0,0,0-.46-1.53,4.11,4.11,0,0,1,.46,1.53Z" style="fill:#2980B9"></path><g style="opacity:0.30000000000000004"><path d="M249.4,341.87c-1.68,6.53-3.07,13.14-4.16,19.79-.26,1.56-.47,3.28.37,4.62,1.08,1.71,3.64,2.05,5.41,1.07a7,7,0,0,0,3.17-5,24.65,24.65,0,0,0,0-6.07,169.24,169.24,0,0,1,.36-21Z"></path></g><g style="opacity:0.30000000000000004"><path d="M287.64,317.79a11.1,11.1,0,0,1,5.62-1.7,12.26,12.26,0,0,0,3.88-.27c1.24-.43,2.26-1.85,1.7-3s-2-1.28-3.25-1.36c-5-.34-11.77.15-16.61-.46l-11.44,27.47c1.51,1.89,5.12,5.19,6.08,7.41s2.16,4.47,4.16,5.82,5,1.48,6.66-.29c1.4-1.51,1.4-3.92.61-5.82a20.83,20.83,0,0,0-3.52-5.05,46.53,46.53,0,0,1-3.26-4.51,3.24,3.24,0,0,1-.68-1.86,3.35,3.35,0,0,1,1-1.88,10.46,10.46,0,0,1,3.25-2.83c1.92-.9,4.2-.54,6.22.13a31.23,31.23,0,0,0,6.07,1.85,4.94,4.94,0,0,0,2.59-.28,2.54,2.54,0,0,0,1.55-2,2.76,2.76,0,0,0-1.24-2.37,8.86,8.86,0,0,0-2.55-1.13,63.77,63.77,0,0,1-6.56-2.58,3.7,3.7,0,0,1-2.18-1.89C285.32,319.85,286.46,318.53,287.64,317.79Z"></path></g><path d="M243,365.67a4.45,4.45,0,0,1,.18-1.13c.16-.71.41-1.73.76-3,.69-2.51,1.79-5.94,3.05-9.71s2.42-7.17,3.2-9.65l.91-2.94a6,6,0,0,1,.38-1.07,4.35,4.35,0,0,1-.18,1.12c-.15.72-.41,1.74-.76,3-.69,2.51-1.79,5.94-3,9.71s-2.41,7.17-3.2,9.65c-.36,1.15-.66,2.14-.91,2.94A5.49,5.49,0,0,1,243,365.67Z" style="fill:#263238"></path><path d="M253.47,365.67a28.58,28.58,0,0,1-.09-3.53c0-2.33,0-5.27,0-8.52s0-6.34.12-8.52a20,20,0,0,1,.28-3.52,30.87,30.87,0,0,1,.09,3.52c0,2.33,0,5.27,0,8.52s-.05,6.34-.13,8.52A19.85,19.85,0,0,1,253.47,365.67Z" style="fill:#263238"></path><path d="M282.15,359c-.12.08-3.17-4.51-6.81-10.25s-6.49-10.46-6.37-10.54,3.17,4.52,6.81,10.26S282.27,358.93,282.15,359Z" style="fill:#263238"></path><path d="M290.18,350A27.14,27.14,0,0,1,288,347.7c-1.36-1.43-3.26-3.38-5.4-5.5s-4.11-4-5.55-5.33a26.36,26.36,0,0,1-2.31-2.22,16,16,0,0,1,2.55,1.94c1.52,1.27,3.53,3.12,5.68,5.24s4,4.12,5.3,5.62A14.38,14.38,0,0,1,290.18,350Z" style="fill:#263238"></path><path d="M297.68,332.75a105.56,105.56,0,0,1-10-3.8,106.07,106.07,0,0,1-9.8-4.28c.05-.13,4.53,1.57,10,3.8S297.74,332.62,297.68,332.75Z" style="fill:#263238"></path><path d="M304.86,329.05c0,.14-4.8-1.16-10.63-2.89s-10.53-3.24-10.48-3.38,4.8,1.15,10.63,2.88S304.9,328.91,304.86,329.05Z" style="fill:#263238"></path><path d="M219.25,352.1a4.15,4.15,0,0,1,.72-.84l2.08-2.18c1.75-1.84,4.16-4.4,6.79-7.26s5-5.47,6.65-7.38l2-2.25c.47-.53.75-.82.78-.79a4.83,4.83,0,0,1-.62.92c-.43.57-1.07,1.38-1.88,2.36-1.61,2-3.92,4.63-6.55,7.5s-5.08,5.38-6.91,7.15c-.91.9-1.67,1.6-2.2,2.07A4.28,4.28,0,0,1,219.25,352.1Z" style="fill:#263238"></path><g style="opacity:0.30000000000000004"><path d="M219.72,319.09a18.5,18.5,0,0,1-5.14,1.42,11.79,11.79,0,0,0-5,1.85,4.58,4.58,0,0,0-1.89,4.67,3.46,3.46,0,0,0,1,1.59c1.41,1.25,3.6,1.12,5.36.44s3.32-1.81,5.1-2.41,4-.53,5.25.9c1.37,1.6.85,4.13-.34,5.87s-2.92,3.06-4.1,4.81a6.72,6.72,0,0,0-1.26,4.59,4.19,4.19,0,0,0,3,3.51c1.81.43,3.64-.67,4.95-2s2.36-2.93,3.91-4a9.31,9.31,0,0,1,7-1.06,27.33,27.33,0,0,1,6.7,2.64"></path></g><path d="M211.23,348.66a4.26,4.26,0,0,1,.78-.73l2.18-1.9c1.84-1.62,4.35-3.88,7.11-6.39l7.06-6.45c.85-.76,1.57-1.4,2.16-1.94a4,4,0,0,1,.84-.66,5.19,5.19,0,0,1-.7.81c-.47.5-1.17,1.2-2,2.06-1.75,1.71-4.21,4-7,6.56s-5.32,4.74-7.22,6.29c-1,.77-1.74,1.38-2.3,1.78A4.44,4.44,0,0,1,211.23,348.66Z" style="fill:#263238"></path><path d="M225.89,322.17a3.83,3.83,0,0,1-.93.61c-.61.35-1.51.85-2.64,1.44-2.24,1.18-5.38,2.74-8.87,4.43l-8.93,4.29-2.71,1.29a4,4,0,0,1-1,.42,4.5,4.5,0,0,1,.93-.6c.61-.36,1.51-.85,2.63-1.44,2.25-1.18,5.39-2.74,8.88-4.43l8.93-4.29,2.71-1.29A5,5,0,0,1,225.89,322.17Z" style="fill:#263238"></path><path d="M226.69,317a4.63,4.63,0,0,1-1,.5c-.69.28-1.72.64-3,1-2.56.77-6.15,1.58-10.14,2.34s-7.64,1.28-10.28,1.59c-1.32.16-2.39.27-3.14.32a4.32,4.32,0,0,1-1.16,0,6.25,6.25,0,0,1,1.14-.23l3.11-.48c2.62-.41,6.25-1,10.23-1.75s7.57-1.5,10.14-2.17c1.28-.33,2.31-.63,3-.85A4.6,4.6,0,0,1,226.69,317Z" style="fill:#263238"></path><path d="M217.9,309.86a34.59,34.59,0,0,0,69.17,0Z" style="fill:#263238"></path><path d="M222.24,309.86a30.25,30.25,0,0,0,60.49,0Z" style="fill:#fff"></path><path d="M230,309.9a22.49,22.49,0,0,0,45,0Z" style="fill:#2980B9"></path><polygon points="175.16 242.71 168.4 256.8 180.35 256.8 184.68 247.51 175.16 242.71" style="fill:#263238"></polygon><circle cx="188.24" cy="225.99" r="10.75" transform="translate(-64.9 375.74) rotate(-80.81)" style="fill:#455a64"></circle><polygon points="173.85 228.84 167.45 244.84 188.24 254.04 195.25 237.64 173.85 228.84" style="fill:#2980B9"></polygon><g style="opacity:0.30000000000000004"><polygon points="187.81 234.58 181.35 251.05 188.24 254.04 195.25 237.64 187.81 234.58"></polygon><path d="M188.26,254.08h0l-6.91-3v0l6.47-16.49h0l7.46,3.07v0Zm-6.88-3,6.85,3,7-16.35-7.4-3Z" style="fill:#455a64"></path></g><path d="M196,220.9c-.07,0-.54-.63-1.53-1.49a9.53,9.53,0,0,0-9.47-1.83c-1.23.42-1.92.88-2,.8a4.76,4.76,0,0,1,1.84-1.15,9.07,9.07,0,0,1,9.85,1.91A4.53,4.53,0,0,1,196,220.9Z" style="fill:#fff"></path><path d="M197.58,224.91c-.15,0-.29-.47-.49-1s-.38-1-.26-1.12.53.3.75.94S197.72,224.9,197.58,224.91Z" style="fill:#fff"></path><polygon points="322.6 243.59 329.3 257.56 317.36 257.59 313.08 248.39 322.6 243.59" style="fill:#263238"></polygon><circle cx="309.52" cy="226.87" r="10.75" style="fill:#455a64"></circle><polygon points="323.91 229.72 330.31 245.72 309.52 254.93 302.51 238.52 323.91 229.72" style="fill:#2980B9"></polygon><g style="opacity:0.30000000000000004"><polygon points="309.95 235.46 316.41 251.93 309.52 254.93 302.51 238.52 309.95 235.46"></polygon><path d="M309.5,255v0l-7-16.42h0l7.46-3.07v0l6.47,16.5h0Zm-7-16.42,7,16.35,6.85-3-6.44-16.43Z" style="fill:#455a64"></path></g><path d="M301.78,221.78a4.53,4.53,0,0,1,1.28-1.76,9.07,9.07,0,0,1,9.85-1.91,4.76,4.76,0,0,1,1.84,1.15c-.05.08-.74-.38-2-.8a9.53,9.53,0,0,0-9.47,1.83C302.32,221.15,301.85,221.83,301.78,221.78Z" style="fill:#fff"></path><path d="M300.18,225.79c-.14,0-.22-.57,0-1.21s.64-1,.75-.94-.06.55-.26,1.12S300.33,225.8,300.18,225.79Z" style="fill:#fff"></path></g><g id="freepik--Floor--inject-9"><path d="M409.83,482.54c0,.14-71.56.26-159.82.26s-159.84-.12-159.84-.26,71.55-.26,159.84-.26S409.83,482.39,409.83,482.54Z" style="fill:#263238"></path></g></svg>