<svg xmlns="http://www.w3.org/2000/svg" width="99.61" height="99.609" viewBox="0 0 99.61 99.609">
  <g id="Regular-M" transform="translate(-8.74 85.059)">
    <path id="Path_134" data-name="Path 134" d="M58.545,14.551a47.774,47.774,0,0,0,19.214-3.906A50.91,50.91,0,0,0,93.652-.146,50.908,50.908,0,0,0,104.443-16.04a47.767,47.767,0,0,0,3.907-19.214,47.767,47.767,0,0,0-3.907-19.214A50.907,50.907,0,0,0,93.652-70.361,50.829,50.829,0,0,0,77.734-81.152,47.947,47.947,0,0,0,58.5-85.059a47.774,47.774,0,0,0-19.214,3.906A50.616,50.616,0,0,0,23.413-70.361,51.115,51.115,0,0,0,12.646-54.468,47.774,47.774,0,0,0,8.74-35.254,47.774,47.774,0,0,0,12.646-16.04,50.91,50.91,0,0,0,23.438-.146,50.911,50.911,0,0,0,39.331,10.644,47.773,47.773,0,0,0,58.545,14.551Z" fill="#007aff"/>
    <path id="Path_135" data-name="Path 135" d="M53.076-11.426a4.87,4.87,0,0,1-2.295-.537,6.336,6.336,0,0,1-2-1.807L36.523-28.809a6.827,6.827,0,0,1-.854-1.538,4.43,4.43,0,0,1-.317-1.636,4.029,4.029,0,0,1,1.123-2.857,3.664,3.664,0,0,1,2.783-1.2,4.155,4.155,0,0,1,1.929.439,5.671,5.671,0,0,1,1.782,1.66l9.912,12.793,20.85-33.5a4.037,4.037,0,0,1,3.516-2.246,4.462,4.462,0,0,1,2.832,1,3.269,3.269,0,0,1,1.27,2.71,3.869,3.869,0,0,1-.391,1.66,17.606,17.606,0,0,1-.83,1.563L57.178-13.769a5.446,5.446,0,0,1-1.807,1.758A4.543,4.543,0,0,1,53.076-11.426Z" fill="#fff"/>
  </g>
</svg>
